<svg xmlns="http://www.w3.org/2000/svg" version="1.1" xmlns:xlink="http://www.w3.org/1999/xlink" xmlns:svgjs="http://svgjs.dev/svgjs" width="1000" height="1000" viewBox="0 0 1000 1000"><rect width="1000" height="1000" fill="#ff5858"></rect><g transform="matrix(0.7,0,0,0.7,149.57576657009406,374.99896324895803)"><svg viewBox="0 0 396 141" data-background-color="#ff5858" preserveAspectRatio="xMidYMid meet" height="356" width="1000" xmlns="http://www.w3.org/2000/svg" xmlns:xlink="http://www.w3.org/1999/xlink"><g id="tight-bounds" transform="matrix(1,0,0,1,0.23999491177534082,0.22691084228296177)"><svg viewBox="0 0 395.52 140.54617831543408" height="140.54617831543408" width="395.52"><g><svg viewBox="0 0 687.8699418651026 244.43135999999998" height="140.54617831543408" width="395.52"><g transform="matrix(1,0,0,1,292.3499418651026,20.725943929618765)"><svg viewBox="0 0 395.52 202.97947214076245" height="202.97947214076245" width="395.52"><g id="textblocktransform"><svg viewBox="0 0 395.52 202.97947214076245" height="202.97947214076245" width="395.52" id="textblock"><g><svg viewBox="0 0 395.52 202.97947214076245" height="202.97947214076245" width="395.52"><g transform="matrix(1,0,0,1,0,0)"><svg width="395.52" viewBox="3.5 -35 68.19999694824219 35" height="202.97947214076245" data-palette-color="#ffffff"><path d="M11.5 0L4.75 0Q4.2 0 3.85-0.38 3.5-0.75 3.5-1.25L3.5-1.25 3.5-33.75Q3.5-34.3 3.85-34.65 4.2-35 4.75-35L4.75-35 18.75-35Q22.9-35 25.98-33.73 29.05-32.45 30.78-29.9 32.5-27.35 32.5-23.45L32.5-23.45Q32.5-19.6 30.78-17.1 29.05-14.6 25.98-13.4 22.9-12.2 18.75-12.2L18.75-12.2 12.8-12.2 12.8-1.25Q12.8-0.75 12.43-0.38 12.05 0 11.5 0L11.5 0ZM12.65-28.05L12.65-19.1 18.5-19.1Q20.65-19.1 21.93-20.2 23.2-21.3 23.2-23.55L23.2-23.55Q23.2-25.45 22.1-26.75 21-28.05 18.5-28.05L18.5-28.05 12.65-28.05ZM44.55 0L38.55 0Q38.05 0 37.67-0.38 37.3-0.75 37.3-1.25L37.3-1.25 37.3-33.75Q37.3-34.3 37.67-34.65 38.05-35 38.55-35L38.55-35 43.95-35Q44.8-35 45.2-34.58 45.6-34.15 45.7-33.9L45.7-33.9 54.5-18.15 63.3-33.9Q63.45-34.15 63.82-34.58 64.2-35 65.05-35L65.05-35 70.4-35Q70.95-35 71.32-34.65 71.7-34.3 71.7-33.75L71.7-33.75 71.7-1.25Q71.7-0.75 71.32-0.38 70.95 0 70.4 0L70.4 0 64.45 0Q63.9 0 63.52-0.38 63.15-0.75 63.15-1.25L63.15-1.25 63.15-20 57.55-9.55Q57.3-9.1 56.9-8.75 56.5-8.4 55.8-8.4L55.8-8.4 53.2-8.4Q52.5-8.4 52.1-8.75 51.7-9.1 51.45-9.55L51.45-9.55 45.8-20 45.8-1.25Q45.8-0.75 45.45-0.38 45.1 0 44.55 0L44.55 0Z" opacity="1" transform="matrix(1,0,0,1,0,0)" fill="#ffffff" class="wordmark-text-0" data-fill-palette-color="primary" id="text-0"></path></svg></g></svg></g></svg></g></svg></g><g><svg viewBox="0 0 244.43135999999998 244.43135999999998" height="244.43135999999998" width="244.43135999999998"><g><svg xmlns="http://www.w3.org/2000/svg" xmlns:xlink="http://www.w3.org/1999/xlink" version="1.1" x="0" y="0" viewBox="1 1 126 126" style="enable-background:new 0 0 128 128;" xml:space="preserve" height="244.43135999999998" width="244.43135999999998" class="icon-icon-0" data-fill-palette-color="accent" id="icon-0"><g fill="#ffffff" data-fill-palette-color="accent"><path d="M110.937 52.703c-7.691-4.44-16.653-5.62-25.231-3.321-8.267 2.215-15.218 7.411-19.687 14.668 9.403 17.409 3.288 39.323-13.954 49.278-5.771 3.331-12.084 4.915-18.313 4.915-0.632 0-1.264-0.028-1.894-0.062C41.271 123.777 52.257 127 64 127c31.814 0 58.104-23.586 62.378-54.223C124.154 64.602 118.837 57.265 110.937 52.703z" fill="#ffffff" data-fill-palette-color="accent"></path><path d="M64 1c-8.339 0-16.291 1.635-23.575 4.577C34.448 11.591 30.749 19.872 30.749 29c0 18.01 14.396 32.711 32.285 33.226 4.938-8.026 12.624-13.774 21.766-16.224 9.482-2.54 19.386-1.237 27.887 3.671 6.348 3.666 11.181 8.957 14.295 15.043C126.983 64.476 127 64.24 127 64 127 29.206 98.795 1 64 1z" fill="#ffffff" data-fill-palette-color="accent"></path><path d="M50.314 110.297c15.598-9.006 21.13-28.825 12.632-44.574C43.168 65.162 27.249 48.91 27.249 29c0-7.337 2.17-14.175 5.891-19.918C13.961 19.882 1 40.421 1 64c0 20.167 9.486 38.105 24.228 49.636C33.414 115.793 42.419 114.854 50.314 110.297z" fill="#ffffff" data-fill-palette-color="accent"></path></g></svg></g></svg></g></svg></g><defs></defs></svg><rect width="395.52" height="140.54617831543408" fill="none" stroke="none" visibility="hidden"></rect></g></svg></g></svg>